<?xml version="1.0" encoding="UTF-8"?>
<!DOCTYPE svg PUBLIC "-//W3C//DTD SVG 1.1//EN" "http://www.w3.org/Graphics/SVG/1.1/DTD/svg11.dtd">
<!-- Creator: CorelDRAW -->
<svg xmlns="http://www.w3.org/2000/svg" xml:space="preserve" width="1.70666in" height="1.70666in" version="1.1" style="shape-rendering:geometricPrecision; text-rendering:geometricPrecision; image-rendering:optimizeQuality; fill-rule:evenodd; clip-rule:evenodd"
viewBox="0 0 1706.66 1706.66"
 xmlns:xlink="http://www.w3.org/1999/xlink"
 xmlns:xodm="http://www.corel.com/coreldraw/odm/2003">
 <defs>
  <style type="text/css">
   <![CDATA[
    .fil0 {fill:#00AFEF}
   ]]>
  </style>
 </defs>
 <g id="Layer_x0020_1">
  <metadata id="CorelCorpID_0Corel-Layer"/>
  <g id="_2370590165648">
   <path class="fil0" d="M935.69 1047.67l-0.06 -956.52c-0,-28.48 5.24,-61.36 -11.65,-78.87 -18.13,-18.8 -46.38,-11.48 -57.85,7.55 -10.2,16.95 -5.56,61.93 -5.56,83.64l0 874.5c0,48.57 6.96,65.07 -10.35,75.92 -67.96,42.57 -50.12,138.2 16.24,161.44 104.44,36.56 176.73,-108.7 69.22,-167.66z"/>
   <path class="fil0" d="M861.24 1523c6.85,36.56 74.43,53.57 74.57,-21.53 0.06,-36.52 4.37,-126.16 -1.33,-156.72 -7.38,-39.6 -74.09,-48.48 -74.09,21.12 -0,35.13 -4.47,128.67 0.85,157.13z"/>
   <path class="fil0" d="M698.22 1205.15c-14.8,3.91 -99.82,54.53 -120.08,66.22 -17.68,10.2 -46.15,22.52 -50.5,42.65 -6.52,30.24 18.35,53.2 48.35,44.85 8.48,-2.36 49.74,-27.62 59.5,-33.23 20.72,-11.91 38.43,-22.34 58.17,-34.15 18.77,-11.23 45.03,-18.74 49.13,-43.35 4.52,-27.1 -18.99,-49.74 -44.58,-42.98z"/>
   <path class="fil0" d="M1082.91 1205.04c-23.41,6.12 -40.32,30.94 -24.87,55.73 9.72,15.59 95.05,59.34 115.98,72.01 16.98,10.29 44.82,31.48 67.63,26.66 21.97,-4.65 38.14,-32.73 21.64,-57.47 -7.91,-11.87 -97,-60.24 -116.34,-71.55 -14.06,-8.22 -45.83,-30.14 -64.04,-25.37z"/>
   <path class="fil0" d="M1217.88 903.3l-120.42 68.4c-18.78,10.95 -43.75,20.84 -44.63,46.63 -0.88,25.89 24.33,45.4 50.02,35.93 13.7,-5.05 45.93,-24.73 59.66,-32.91 19.52,-11.63 39.67,-23.69 60.14,-35.34 19.94,-11.35 45.24,-17.95 46.85,-45.49 1.61,-27.37 -24.16,-48.67 -51.63,-37.22z"/>
   <path class="fil0" d="M549.59 903.23c-23.94,10.66 -32.97,40.01 -11.02,61.07 11.35,10.89 42.21,25.87 57.42,34.87 20.22,11.97 37.91,21.39 58.84,33.63 17.18,10.05 41.36,32.31 68.04,20.08 21.42,-9.82 28.94,-41.6 9.33,-60.55l-116.23 -68.48c-15.77,-9.55 -43.38,-30.85 -66.37,-20.61z"/>
   <path class="fil0" d="M537.38 1093.95c-43.74,10.59 -39.56,70.07 6.35,73.79 21.15,1.71 122.13,2.49 139.76,-0.79 41.71,-7.77 42.1,-70.89 -7.83,-74.19 -19.1,-1.26 -125.71,-1.84 -138.28,1.2z"/>
   <path class="fil0" d="M1113.23 1094.06c-46.02,10.06 -38.05,70.57 6.27,73.7 21.67,1.54 122,2.44 139.67,-0.91 40.94,-7.78 42.3,-70.55 -7.87,-74.09 -20.99,-1.48 -122.74,-2.05 -138.07,1.3z"/>
   <path class="fil0" d="M972.81 1332.08c3.19,13.56 48.46,86.44 59.41,105.54 10.25,17.89 18.88,38.41 46.61,36.07 22.05,-1.85 37.62,-19.15 32.66,-44.67 -2.36,-12.17 -49.6,-90.28 -59.36,-107 -9.99,-17.12 -18.15,-39.2 -46.77,-36.76 -21.49,1.82 -38.31,22.41 -32.56,46.83z"/>
   <path class="fil0" d="M1063.09 788.77c-22.83,8.32 -49.32,66.87 -66.8,97.21 -9.05,15.71 -26.75,35.58 -24.23,57.5 2.47,21.58 24.69,38.32 50.01,29.87 16.44,-5.48 26.3,-28.05 35.48,-44.71 12.15,-22.06 57.41,-87.21 54.48,-109.89 -2.76,-21.41 -23.36,-39.31 -48.94,-29.99z"/>
   <path class="fil0" d="M709 788.86c-51.43,17.92 -6.21,79.26 9.78,106.09 9.87,16.56 19.37,32.57 29.5,50.43 37.32,65.8 90.9,13.48 71.71,-25.56 -4.14,-8.42 -10.27,-17.41 -14.53,-25.3l-45.17 -78.06c-9.3,-17.79 -22.74,-37.54 -51.29,-27.59z"/>
   <path class="fil0" d="M820.83 1338.24c16.59,-39.56 -36.4,-87.03 -73.81,-21.03l-45.12 77.94c-5.2,8.63 -11.11,16.56 -14.59,25.4 -10.48,26.66 5.65,48.85 26.09,52.52 28.57,5.12 37.06,-11.91 47.92,-30.81l59.51 -104.02z"/>
   <path class="fil0" d="M860.85 1676.96c5.11,28.52 41.24,42.93 64.66,18.87 14.44,-14.83 13.55,-72.25 9.04,-95.64 -5.67,-29.39 -41.82,-39.84 -63.68,-17.63 -13.78,14 -14.2,71.07 -10.02,94.4z"/>
   <path class="fil0" d="M518.71 1384.43c14.88,-31.91 -17.83,-64.55 -53.52,-47.31 -21,10.14 -61.99,31.79 -68.97,48.07 -14.36,33.46 18.02,64.37 53.45,47.22 18.4,-8.91 61.57,-31.95 69.05,-47.98z"/>
   <path class="fil0" d="M1276.17 1381.35c5.14,18.5 47.48,38.96 67.24,49.81 32.41,17.78 68.54,-6.2 58.08,-42.52 -5.64,-19.56 -47.72,-39.59 -67.1,-50.04 -31.92,-17.22 -68.92,4.26 -58.22,42.75z"/>
   <path class="fil0" d="M1351.57 827.15c-18.85,8.77 -62.99,29.91 -71.48,43.78 -19.63,32.07 12.59,69.24 47.94,54.07 10.33,-4.43 24.52,-13.59 35.67,-19.71 12,-6.59 25.93,-13.59 33.63,-24.89 19.52,-28.67 -10.22,-69.78 -45.76,-53.25z"/>
   <path class="fil0" d="M416.4 825.62c-18.98,7.3 -42.87,43.31 0.11,69.93 18.67,11.56 56.69,39.45 81.42,30.92 23.14,-7.98 39.54,-46.91 0.72,-70.11 -19.3,-11.54 -57.31,-40.33 -82.24,-30.74z"/>
  </g>
 </g>
</svg>
